<svg xmlns="http://www.w3.org/2000/svg" viewBox="0 0 512 512" role="img" aria-label="Ocean Ten News icon">
  <defs>
    <linearGradient id="bg" x1="0" y1="0" x2="1" y2="1">
      <stop offset="0%" stop-color="#0c1326"/>
      <stop offset="100%" stop-color="#111f3f"/>
    </linearGradient>
    <linearGradient id="gold" x1="0" y1="0" x2="1" y2="1">
      <stop offset="0%" stop-color="#ffe3a3"/>
      <stop offset="55%" stop-color="#ffbe57"/>
      <stop offset="100%" stop-color="#ff8a3d"/>
    </linearGradient>
    <radialGradient id="glow" cx="50%" cy="42%" r="65%">
      <stop offset="0%" stop-color="#2e4a86" stop-opacity="0.65"/>
      <stop offset="100%" stop-color="#101a33" stop-opacity="0"/>
    </radialGradient>
  </defs>

  <rect width="512" height="512" rx="114" fill="url(#bg)"/>
  <rect x="24" y="24" width="464" height="464" rx="100" fill="url(#glow)"/>

  <rect x="66" y="66" width="380" height="380" rx="90" fill="#0e162d" stroke="#2b3f72" stroke-width="3"/>
  <rect x="92" y="92" width="328" height="328" rx="72" fill="#101c38"/>

  <circle cx="256" cy="256" r="118" fill="none" stroke="url(#gold)" stroke-width="14" opacity="0.95"/>

  <path d="M185 299V211h46.5c19.5 0 33 13 33 32.2 0 19.6-13.5 31.8-33 31.8H205v24h-20zm20-42h24.8c9.6 0 15.6-5.2 15.6-13.8 0-8.8-6-14.2-15.6-14.2H205v28z"
        fill="url(#gold)"/>
  <path d="M282 211h20v70h44v18h-64V211z" fill="#dce8ff"/>

  <rect x="352" y="126" width="72" height="34" rx="17" fill="#ff4c66"/>
  <text x="388" y="148" text-anchor="middle" font-size="18" font-family="Arial, sans-serif" font-weight="700" fill="#fff">LIVE</text>
</svg>
